<?xml version="1.0" encoding="iso-8859-1"?>

<!DOCTYPE svg PUBLIC "-//W3C//DTD SVG 1.1//EN" "http://www.w3.org/Graphics/SVG/1.1/DTD/svg11.dtd">
<!-- Uploaded to: SVG Repo, www.svgrepo.com, Generator: SVG Repo Mixer Tools -->
<svg height="800px" width="800px" version="1.1" id="_x35_" xmlns="http://www.w3.org/2000/svg" xmlns:xlink="http://www.w3.org/1999/xlink" 
	 viewBox="0 0 512 512"  xml:space="preserve">
<g>
	<path style="fill:#FFFFFF;" d="M242.821,51.47v258.379c-41.795,0-48.932,54.086-65.111,111.267
		c-7.058,24.981-14.275,50.676-23.078,69.075C147.892,504.069,140.992,512,135.599,512c-1.031,0-2.062,0-3.092-0.079
		c-17.686-1.031-32.912-11.816-47.663-47.584c0-0.079,0-0.159-0.079-0.159c-10.627-25.854-21.016-64.872-31.881-122.686
		c-5.71-30.136-13.165-54.483-21.095-80.178c-8.089-26.251-17.209-55.911-25.933-97.071c-11.499-53.849-5.869-102.146,15.227-132.6
		C32.977,14.434,49.235,3.886,67.951,1.11C72.868,0.317,78.023,0,83.336,0c15.147,0,34.181,4.203,54.325,9.596
		c0.317,0.079,0.714,0.159,1.031,0.318c35.688,9.993,74.944,41.318,103.257,41.556H242.821z"/>
	<path style="fill:#F3F0E4;" d="M125.006,499.723c-7.838-17.102-46.349-223.472-54.612-250.315
		c-7.813-25.376-16.666-54.128-25.037-93.586c-8.979-42.33,1.677-83.126,45.143-98.191c39.865-13.817,78.741,26.395,105.165,45.924
		c31.097,22.982,38.404,23.745,47.163,23.745v152.594c-28.971,0-46.152,15.175-73.779,45.088
		c-18.875,20.436-28.218,54.251-30.238,85.158C135.533,460.309,129.771,486.214,125.006,499.723z"/>
	<path style="fill:#F7C0BF;" d="M123.573,436.559c-1.464-25.749-5.943-101.786-13.647-171.538
		c-5.723-51.811-11.618-85.836,12.3-108.407c18.344-17.311,53.395-29.645,81.019-4.042c0,0,31.299,26.612,39.583,26.612v66.37
		c-25.957,5.274-54.169-0.419-88.262,60.129C133.511,343.076,127.721,414.311,123.573,436.559z"/>
	<path style="fill:#DCDBDB;" d="M242.821,51.47v20.302c-38.939-0.396-75.42-27.678-102.781-59.876
		c-0.555-0.635-0.952-1.269-1.348-1.983c-0.079-0.079-0.079-0.238-0.159-0.318C174.538,19.271,214.271,51.231,242.821,51.47z"/>
	<path style="opacity:0.2;fill:#F7C0BF;" d="M123.573,436.559c-1.464-25.749-5.943-101.786-13.647-171.538
		c-5.723-51.811-11.618-85.836,12.3-108.407c18.344-17.311,53.395-29.645,81.019-4.042c0,0,31.299,26.612,39.583,26.612v66.37
		c-25.957,5.274-55.922-4.383-94.999,54.907C124.213,336.292,127.721,414.311,123.573,436.559z"/>
	<path style="fill:#F6F5F5;" d="M479.867,164.243c-8.803,41.16-17.923,70.82-26.013,97.071
		c-7.851,25.695-15.385,50.042-21.016,80.178C405.953,484.084,382.082,512,350.043,512c-5.393,0-12.292-7.931-18.954-21.809
		c-8.882-18.4-16.099-44.095-23.157-69.075c-16.179-57.18-23.316-111.267-65.111-111.267V51.47h0.872
		c28.312-0.238,67.569-31.564,103.257-41.556c0.317-0.159,0.714-0.238,1.031-0.318C368.204,4.203,387.158,0,402.305,0
		c5.314,0,10.469,0.317,15.385,1.11c3.569,0.555,7.058,1.349,10.469,2.459c14.354,4.599,26.805,14.196,36.402,28.074
		c3.886,5.552,7.217,11.658,9.993,18.32C487.163,79.861,489.225,120.148,479.867,164.243z"/>
	<path style="fill:#E3E1CF;" d="M360.65,499.723c7.838-17.102,46.349-223.472,54.612-250.315
		c7.813-25.376,16.665-54.128,25.037-93.586c8.979-42.33-1.677-83.126-45.143-98.191c-39.865-13.817-78.74,26.395-105.165,45.924
		c-31.097,22.982-38.404,23.745-47.163,23.745v152.594c28.971,0,46.152,15.175,73.779,45.088
		c18.875,20.436,28.218,54.251,30.238,85.158C350.123,460.309,355.885,486.214,360.65,499.723z"/>
	<path style="fill:#D69593;" d="M362.082,436.559c1.464-25.749,5.943-101.786,13.647-171.538
		c5.723-51.811,11.618-85.836-12.3-108.407c-18.344-17.311-53.395-29.645-81.019-4.042c0,0-31.299,26.612-39.583,26.612v66.37
		c25.957,5.274,54.169-0.419,88.262,60.129C352.145,343.076,357.935,414.311,362.082,436.559z"/>
	<path style="fill:#C8C7C7;" d="M347.108,9.596c-0.079,0.079-0.079,0.238-0.159,0.318c-0.396,0.713-0.793,1.348-1.348,1.983
		c-27.361,32.198-63.841,59.48-102.781,59.876V51.47C271.371,51.231,311.103,19.271,347.108,9.596z"/>
</g>
</svg>